<svg width="1200" height="700" viewBox="0 0 1200 700" fill="none" xmlns="http://www.w3.org/2000/svg">
<rect width="1200" height="700" rx="28" fill="#FBF8F2"/>

<rect x="42" y="42" width="1116" height="616" rx="24" fill="#F3EEE2" stroke="#D8CFBD"/>
<text x="74" y="96" fill="#1B1F20" font-family="Georgia, serif" font-size="42">autoSampler public flow</text>
<text x="74" y="126" fill="#5F625B" font-family="Helvetica, Arial, sans-serif" font-size="18">sample unit to worker API to reviewer-facing artifacts</text>

<rect x="86" y="190" width="200" height="108" rx="18" fill="#183A37"/>
<text x="112" y="236" fill="#FFFDF6" font-family="Helvetica, Arial, sans-serif" font-size="24" font-weight="700">Sample Unit</text>
<text x="112" y="268" fill="#D4E0D8" font-family="Helvetica, Arial, sans-serif" font-size="16">description + labels + mp4</text>

<rect x="348" y="190" width="220" height="108" rx="18" fill="#476C9B"/>
<text x="374" y="236" fill="#FFFDF6" font-family="Helvetica, Arial, sans-serif" font-size="24" font-weight="700">Device Registry</text>
<text x="374" y="268" fill="#E1EAF5" font-family="Helvetica, Arial, sans-serif" font-size="16">platform / role / capability match</text>

<rect x="630" y="190" width="220" height="108" rx="18" fill="#BF4C2F"/>
<text x="656" y="236" fill="#FFFDF6" font-family="Helvetica, Arial, sans-serif" font-size="24" font-weight="700">Execution Plan</text>
<text x="656" y="268" fill="#F7DED8" font-family="Helvetica, Arial, sans-serif" font-size="16">scenario profile + ordered steps</text>

<rect x="912" y="190" width="206" height="108" rx="18" fill="#C79B28"/>
<text x="938" y="236" fill="#2D2614" font-family="Helvetica, Arial, sans-serif" font-size="24" font-weight="700">Heuristic Review</text>
<text x="938" y="268" fill="#5A4A1F" font-family="Helvetica, Arial, sans-serif" font-size="16">stall / resolution scoring</text>

<rect x="210" y="396" width="250" height="120" rx="18" fill="#EFE5CF"/>
<text x="238" y="444" fill="#1B1F20" font-family="Helvetica, Arial, sans-serif" font-size="24" font-weight="700">Storyboard Evidence</text>
<text x="238" y="476" fill="#5F625B" font-family="Helvetica, Arial, sans-serif" font-size="16">frame extraction for manual review</text>

<rect x="506" y="396" width="250" height="120" rx="18" fill="#E3EBF3"/>
<text x="534" y="444" fill="#1B1F20" font-family="Helvetica, Arial, sans-serif" font-size="24" font-weight="700">Structured Reports</text>
<text x="534" y="476" fill="#5F625B" font-family="Helvetica, Arial, sans-serif" font-size="16">json + markdown + manifest</text>

<rect x="802" y="396" width="196" height="120" rx="18" fill="#E7DDD3"/>
<text x="830" y="444" fill="#1B1F20" font-family="Helvetica, Arial, sans-serif" font-size="24" font-weight="700">Worker API</text>
<text x="830" y="476" fill="#5F625B" font-family="Helvetica, Arial, sans-serif" font-size="16">run / jobs / showcase</text>

<path d="M286 244H348" stroke="#5F625B" stroke-width="8" stroke-linecap="round"/>
<path d="M568 244H630" stroke="#5F625B" stroke-width="8" stroke-linecap="round"/>
<path d="M850 244H912" stroke="#5F625B" stroke-width="8" stroke-linecap="round"/>
<path d="M1015 298V348H334V396" stroke="#5F625B" stroke-width="8" stroke-linecap="round" stroke-linejoin="round"/>
<path d="M1015 298V356H631V396" stroke="#5F625B" stroke-width="8" stroke-linecap="round" stroke-linejoin="round"/>
<path d="M1015 298V396H900" stroke="#5F625B" stroke-width="8" stroke-linecap="round" stroke-linejoin="round"/>

</svg>
