<svg width="1200" height="500" viewBox="0 0 1200 500" fill="none" xmlns="http://www.w3.org/2000/svg">
<rect width="1200" height="500" rx="28" fill="#FBF8F2"/>

<text x="72" y="84" fill="#1B1F20" font-family="Georgia, serif" font-size="40">device capability matrix</text>
<text x="72" y="114" fill="#5F625B" font-family="Helvetica, Arial, sans-serif" font-size="18">mock execution targets used by the public scenario planner</text>
<text x="72" y="150" fill="#1B1F20" font-family="Helvetica, Arial, sans-serif" font-size="18" font-weight="700">ios-lab-01</text><text x="72" y="174" fill="#5F625B" font-family="Helvetica, Arial, sans-serif" font-size="14">ios / iPhone 15 Pro / capture</text><rect x="360" y="132" width="126" height="36" rx="10" fill="#E5DED0"/><text x="376" y="155" fill="#8A857A" font-family="Helvetica, Arial, sans-serif" font-size="14">adb_shell</text><rect x="498" y="132" width="126" height="36" rx="10" fill="#E5DED0"/><text x="514" y="155" fill="#8A857A" font-family="Helvetica, Arial, sans-serif" font-size="14">artifact_sync</text><rect x="636" y="132" width="126" height="36" rx="10" fill="#E5DED0"/><text x="652" y="155" fill="#8A857A" font-family="Helvetica, Arial, sans-serif" font-size="14">job_dispatch</text><rect x="774" y="132" width="126" height="36" rx="10" fill="#E5DED0"/><text x="790" y="155" fill="#8A857A" font-family="Helvetica, Arial, sans-serif" font-size="14">network_profile</text><rect x="912" y="132" width="126" height="36" rx="10" fill="#183A37"/><text x="928" y="155" fill="#FFFDF6" font-family="Helvetica, Arial, sans-serif" font-size="14">resolution_probe</text><rect x="1050" y="132" width="126" height="36" rx="10" fill="#183A37"/><text x="1066" y="155" fill="#FFFDF6" font-family="Helvetica, Arial, sans-serif" font-size="14">touch_replay</text><rect x="1188" y="132" width="126" height="36" rx="10" fill="#183A37"/><text x="1204" y="155" fill="#FFFDF6" font-family="Helvetica, Arial, sans-serif" font-size="14">video_capture</text><text x="72" y="242" fill="#1B1F20" font-family="Helvetica, Arial, sans-serif" font-size="18" font-weight="700">android-lab-02</text><text x="72" y="266" fill="#5F625B" font-family="Helvetica, Arial, sans-serif" font-size="14">android / Pixel 8 Pro / capture</text><rect x="360" y="224" width="126" height="36" rx="10" fill="#183A37"/><text x="376" y="247" fill="#FFFDF6" font-family="Helvetica, Arial, sans-serif" font-size="14">adb_shell</text><rect x="498" y="224" width="126" height="36" rx="10" fill="#E5DED0"/><text x="514" y="247" fill="#8A857A" font-family="Helvetica, Arial, sans-serif" font-size="14">artifact_sync</text><rect x="636" y="224" width="126" height="36" rx="10" fill="#E5DED0"/><text x="652" y="247" fill="#8A857A" font-family="Helvetica, Arial, sans-serif" font-size="14">job_dispatch</text><rect x="774" y="224" width="126" height="36" rx="10" fill="#183A37"/><text x="790" y="247" fill="#FFFDF6" font-family="Helvetica, Arial, sans-serif" font-size="14">network_profile</text><rect x="912" y="224" width="126" height="36" rx="10" fill="#E5DED0"/><text x="928" y="247" fill="#8A857A" font-family="Helvetica, Arial, sans-serif" font-size="14">resolution_probe</text><rect x="1050" y="224" width="126" height="36" rx="10" fill="#E5DED0"/><text x="1066" y="247" fill="#8A857A" font-family="Helvetica, Arial, sans-serif" font-size="14">touch_replay</text><rect x="1188" y="224" width="126" height="36" rx="10" fill="#183A37"/><text x="1204" y="247" fill="#FFFDF6" font-family="Helvetica, Arial, sans-serif" font-size="14">video_capture</text><text x="72" y="334" fill="#1B1F20" font-family="Helvetica, Arial, sans-serif" font-size="18" font-weight="700">android-orch-01</text><text x="72" y="358" fill="#5F625B" font-family="Helvetica, Arial, sans-serif" font-size="14">android / OnePlus 12 / orchestrator</text><rect x="360" y="316" width="126" height="36" rx="10" fill="#E5DED0"/><text x="376" y="339" fill="#8A857A" font-family="Helvetica, Arial, sans-serif" font-size="14">adb_shell</text><rect x="498" y="316" width="126" height="36" rx="10" fill="#183A37"/><text x="514" y="339" fill="#FFFDF6" font-family="Helvetica, Arial, sans-serif" font-size="14">artifact_sync</text><rect x="636" y="316" width="126" height="36" rx="10" fill="#183A37"/><text x="652" y="339" fill="#FFFDF6" font-family="Helvetica, Arial, sans-serif" font-size="14">job_dispatch</text><rect x="774" y="316" width="126" height="36" rx="10" fill="#E5DED0"/><text x="790" y="339" fill="#8A857A" font-family="Helvetica, Arial, sans-serif" font-size="14">network_profile</text><rect x="912" y="316" width="126" height="36" rx="10" fill="#E5DED0"/><text x="928" y="339" fill="#8A857A" font-family="Helvetica, Arial, sans-serif" font-size="14">resolution_probe</text><rect x="1050" y="316" width="126" height="36" rx="10" fill="#E5DED0"/><text x="1066" y="339" fill="#8A857A" font-family="Helvetica, Arial, sans-serif" font-size="14">touch_replay</text><rect x="1188" y="316" width="126" height="36" rx="10" fill="#E5DED0"/><text x="1204" y="339" fill="#8A857A" font-family="Helvetica, Arial, sans-serif" font-size="14">video_capture</text>

</svg>
